<svg width="200" height="35" viewBox="0 0 200 35" fill="none" xmlns="http://www.w3.org/2000/svg">
<g clip-path="url(#clip0_917_219)">
<path fill-rule="evenodd" clip-rule="evenodd" d="M47.3285 27.9511C47.3463 27.9008 47.3297 27.8447 47.2877 27.8127L46.8 27.4408C46.7505 27.403 46.6808 27.4099 46.6393 27.4566C45.5252 28.7106 43.8514 29.5235 41.7705 29.5235C39.6834 29.5235 38.0322 28.8716 36.8507 27.5493C35.6841 26.2438 34.9619 24.2696 34.7473 21.5801C36.1799 21.504 37.6178 21.4225 39.0796 21.3395C41.5595 21.1988 44.1081 21.0543 46.815 20.9257C46.8767 20.9228 46.9261 20.8727 46.9291 20.8101C47.0726 17.8092 46.2424 15.4192 44.686 13.7791C43.13 12.1393 40.8613 11.2631 38.1538 11.2631C32.5515 11.2631 28.2812 15.8722 28.2812 22.3327C28.2812 28.5893 32.7164 33.485 38.6415 33.485C42.623 33.485 46.1702 31.2314 47.3285 27.9511ZM38.8076 20.0581C37.5152 20.1429 36.1768 20.2306 34.6976 20.3046V19.7718C34.7178 17.216 35.0225 15.41 35.5746 14.2469C35.8498 13.6671 36.1843 13.2519 36.5715 12.9813C36.9576 12.7115 37.4032 12.5806 37.91 12.5806C38.7889 12.5806 39.576 13.071 40.1705 14.2496C40.7594 15.417 41.1517 17.2489 41.2406 19.9045C40.4322 19.9516 39.6287 20.0042 38.8076 20.0581Z" fill="#047B44"></path>
<path d="M63.9645 18.7114C63.9869 18.7557 64.0336 18.7817 64.0824 18.777L64.9358 18.6944C64.9982 18.6884 65.0455 18.6344 65.0441 18.5707C65.0036 16.632 65.0441 14.6515 65.0848 12.7094C65.0858 12.6634 65.0611 12.6208 65.0211 12.5993C64.3138 12.2186 63.1616 11.8855 61.9088 11.6473C60.6534 11.4087 59.2847 11.2631 58.1381 11.2631C55.6634 11.2631 53.6134 11.8346 52.1789 12.9297C50.7402 14.028 49.9316 15.6451 49.9316 17.7056C49.9316 19.5936 50.7039 21.0078 51.8542 22.1325C53.0005 23.2534 54.5243 24.0892 56.034 24.8282C56.41 25.0122 56.7847 25.1901 57.1527 25.3648C58.2695 25.895 59.3249 26.396 60.1696 26.9522C61.2927 27.6916 62.0008 28.5016 62.0008 29.5625C62.0008 30.3369 61.7181 31.0066 61.2252 31.4832C60.7321 31.96 60.0212 32.2501 59.154 32.2501C56.4861 32.2501 53.3486 29.7032 51.164 24.6995C51.0531 24.4456 50.7951 24.2868 50.5201 24.3134C50.1874 24.3456 49.9369 24.6356 49.9486 24.975C50.0125 26.8413 50.0729 28.7286 50.0897 30.5969C50.0955 31.2535 50.4037 31.8998 51.023 32.1679C52.7944 32.9348 55.9388 33.485 58.0568 33.485C61.0784 33.485 63.3036 32.8315 64.7755 31.6407C66.2518 30.4463 66.9541 28.7247 66.9541 26.6293C66.9541 24.903 66.1812 23.5816 65.0362 22.5073C63.8945 21.4362 62.3768 20.6047 60.8729 19.8532C60.5481 19.6908 60.224 19.5323 59.9045 19.3759C58.738 18.8052 57.6301 18.2631 56.7518 17.6683C55.6312 16.9095 54.9257 16.0917 54.9257 15.0617C54.9257 14.2824 55.1708 13.644 55.6068 13.2008C56.0427 12.7576 56.6807 12.498 57.4879 12.498C58.6936 12.498 59.7418 12.9278 60.7735 13.916C61.8099 14.9085 62.8285 16.4634 63.9645 18.7114Z" fill="#047B44"></path>
<path d="M83.3976 30.3342C83.4304 30.2858 83.425 30.2205 83.3839 30.1788L82.8147 29.6004C82.7921 29.5776 82.762 29.5648 82.7304 29.5648C82.6983 29.5648 82.6681 29.5776 82.6455 29.6004C82.3058 29.9461 81.7284 30.1845 81.1044 30.1845C79.3619 30.1845 77.6482 28.5667 77.6482 25.5139V13.4895H82.2017C82.2681 13.4895 82.3215 13.435 82.3215 13.3678V12.2936C82.3215 12.2264 82.2681 12.172 82.2017 12.172H77.6482V7.00557C77.6482 6.96218 77.6256 6.92207 77.5887 6.9003L76.8167 6.44581C76.7702 6.41858 76.7119 6.42586 76.6736 6.46367C74.2859 8.80979 71.825 10.7947 67.6343 12.5411C67.4526 12.6168 67.3311 12.7967 67.3311 12.998C67.3311 13.2694 67.5476 13.4895 67.8148 13.4895H70.5161C70.9784 13.4895 71.3537 13.8708 71.3537 14.3412V26.3401C71.3537 28.6164 72.0325 30.4041 73.1647 31.6239C74.2969 32.8439 75.8743 33.485 77.6503 33.485C79.8852 33.485 81.9941 32.3903 83.3976 30.3342Z" fill="#047B44"></path>
<path fill-rule="evenodd" clip-rule="evenodd" d="M110.616 30.497C110.656 30.4759 110.682 30.4335 110.681 30.3874C110.651 27.6613 110.663 25.565 110.74 23.9491C110.817 22.3318 110.957 21.2032 111.18 20.4088C111.401 19.6165 111.7 19.1695 112.087 18.8987C112.477 18.6249 112.974 18.5184 113.622 18.4463C113.683 18.4396 113.729 18.3874 113.729 18.3254V17.3338C113.729 17.3009 113.716 17.2694 113.693 17.2465C113.669 17.2236 113.638 17.2112 113.606 17.2122C110.966 17.2948 109.667 17.2948 107.513 17.2948C105.76 17.2948 103.595 17.2948 99.7297 17.2219C99.3873 17.2154 99.1044 17.4956 99.1044 17.8446C99.1044 18.1801 99.366 18.45 99.6893 18.4741C101.448 18.6053 102.511 19.043 103.165 19.8361C103.822 20.634 104.087 21.817 104.184 23.497C104.344 26.1483 104.346 28.8406 104.228 31.5341C103.267 31.8002 102.343 32.0436 101.174 32.0436C98.8681 32.0436 96.5551 30.6793 94.8188 27.9625C93.0825 25.2454 91.9277 21.1806 91.9476 15.8059C91.9681 12.208 92.7873 9.40388 94.0702 7.50305C95.3523 5.60399 97.0962 4.60717 98.9797 4.60717C102.274 4.60717 105.334 7.22603 108.053 13.9511C108.074 14.0019 108.125 14.0324 108.179 14.0256L109.154 13.9017C109.215 13.8939 109.261 13.8399 109.259 13.7772C109.191 11.5438 109.265 9.31061 109.338 7.07298V7.07137C109.352 6.624 109.367 6.17642 109.381 5.72862C109.382 5.68605 109.361 5.64589 109.326 5.62274C108.272 4.92943 106.63 4.34721 104.812 3.93807C102.991 3.52837 100.98 3.28967 99.1832 3.28967C94.788 3.28967 91.1886 4.76607 88.6893 7.39618C86.19 10.0258 84.8003 13.7971 84.8003 18.3667C84.8003 22.9802 86.3133 26.7623 88.9455 29.3911C91.577 32.0196 95.3167 33.485 99.7524 33.485C101.791 33.485 103.376 33.3295 105.021 32.8765C106.663 32.424 108.359 31.6758 110.616 30.497Z" fill="#047B44"></path>
<path d="M123.559 33.485C126.189 33.485 129.078 32.1171 131.12 29.8791V32.372C131.12 32.6966 131.286 32.9978 131.558 33.1671C131.812 33.3243 132.123 33.3462 132.395 33.2326C134.904 32.1879 137.102 31.6586 140.186 31.5018C140.25 31.4986 140.3 31.4451 140.3 31.3803V30.5127C140.3 30.4557 140.26 30.4063 140.206 30.394C139.123 30.1493 138.391 29.7562 137.928 29.1472C137.463 28.5374 137.252 27.691 137.252 26.5054V11.55C137.252 11.5077 137.23 11.4683 137.195 11.4462L136.463 10.9918C136.42 10.9652 136.365 10.9686 136.326 11.0002C133.723 13.0942 130.932 14.6193 128.313 15.6482C128.071 15.7432 127.91 15.9786 127.91 16.2434C127.91 16.5967 128.191 16.8666 128.519 16.9048C129.297 16.9952 129.906 17.3032 130.319 17.7572C130.732 18.2109 130.958 18.8186 130.958 19.5235V26.8929C130.958 27.8177 130.652 28.7282 129.952 29.2768C128.972 30.0448 127.852 30.4737 126.607 30.4737C125.729 30.4737 125.047 30.1296 124.579 29.4078C124.105 28.6775 123.842 27.5488 123.842 25.9683V11.55C123.842 11.5077 123.82 11.4683 123.784 11.4462L123.053 10.9918C123.01 10.9652 122.956 10.9686 122.916 11.0002C120.313 13.0942 117.522 14.6193 114.903 15.6482C114.661 15.7432 114.5 15.9786 114.5 16.2434C114.5 16.5967 114.781 16.8666 115.109 16.9048C115.887 16.9952 116.495 17.3032 116.908 17.7572C117.321 18.2109 117.547 18.8186 117.547 19.5235V27.2077C117.547 29.6967 118.393 31.2735 119.579 32.2246C120.76 33.1717 122.263 33.485 123.559 33.485Z" fill="#047B44"></path>
<path d="M153.955 33.0719C153.987 33.0729 154.019 33.0605 154.042 33.0376C154.066 33.0147 154.079 32.9831 154.079 32.9502V31.9587C154.079 31.8998 154.037 31.8493 153.981 31.8389C153.215 31.6992 152.588 31.354 152.147 30.6003C151.701 29.8381 151.437 28.6456 151.437 26.7946V11.55C151.437 11.5077 151.416 11.4683 151.38 11.4462L150.648 10.9918C150.606 10.9652 150.551 10.9686 150.512 11.0002C147.914 13.0901 145.129 14.6135 142.514 15.6423C142.264 15.7409 142.096 15.9852 142.096 16.26C142.096 16.6055 142.357 16.8819 142.683 16.9311C143.537 17.0605 144.149 17.3422 144.547 17.7665C144.944 18.189 145.143 18.768 145.143 19.5235V27.6209C145.143 29.0664 144.881 30.0095 144.442 30.6335C144.005 31.2545 143.383 31.5769 142.623 31.755C142.325 31.8248 142.096 32.0874 142.096 32.4084C142.096 32.7739 142.393 33.0667 142.752 33.0572C146.85 32.9482 150.179 32.9531 153.955 33.0719Z" fill="#047B44"></path>
<path fill-rule="evenodd" clip-rule="evenodd" d="M165.747 11.2218C167.44 11.2218 168.984 11.7187 170.342 12.7486V11.2608C170.342 10.5053 170.142 9.92633 169.746 9.50393C169.347 9.07958 168.735 8.79796 167.881 8.66855C167.555 8.61923 167.294 8.34284 167.294 7.99732C167.294 7.72253 167.462 7.47837 167.712 7.37952C170.316 6.35118 172.989 4.82825 175.588 2.73758C175.628 2.70592 175.682 2.70256 175.725 2.72918L176.457 3.18362C176.492 3.20573 176.514 3.24505 176.514 3.28743V26.7945C176.514 28.6466 176.778 29.8357 177.271 30.5955C177.759 31.3468 178.483 31.6966 179.459 31.8382C179.518 31.8468 179.562 31.8981 179.562 31.9587V32.9502C179.562 32.9831 179.548 33.0145 179.525 33.0375C179.502 33.0604 179.471 33.0728 179.438 33.0719C176.183 32.979 175.185 32.9558 173.066 33.002C171.652 33.0327 170.467 31.9616 170.317 30.5655C168.701 32.3551 166.635 33.4437 164.447 33.4437C159.94 33.4437 155.875 29.659 155.875 22.9938C155.875 19.2558 156.825 16.3117 158.54 14.3003C160.258 12.2867 162.731 11.2218 165.747 11.2218ZM167.292 30.4323C165.968 30.4323 164.767 29.8928 163.892 28.5503C163.011 27.2001 162.453 25.0281 162.453 21.7544C162.453 18.4568 162.91 16.2198 163.688 14.8113C164.459 13.4129 165.548 12.8285 166.844 12.8285C167.97 12.8285 169.225 13.4151 170.22 14.3304V28.6536C169.783 29.095 169.315 29.5357 168.825 29.8687C168.322 30.2111 167.807 30.4323 167.292 30.4323Z" fill="#047B44"></path>
<path fill-rule="evenodd" clip-rule="evenodd" d="M199.993 27.9511C200.011 27.9008 199.994 27.8447 199.952 27.8127L199.464 27.4408C199.415 27.403 199.345 27.4099 199.303 27.4566C198.19 28.7106 196.516 29.5235 194.435 29.5235C192.348 29.5235 190.696 28.8716 189.515 27.5493C188.349 26.2438 187.627 24.2696 187.412 21.5801C188.844 21.504 190.282 21.4225 191.744 21.3395C194.224 21.1989 196.773 21.0543 199.479 20.9257C199.541 20.9228 199.59 20.8727 199.593 20.8101C199.737 17.8092 198.907 15.4192 197.351 13.7791C195.794 12.1393 193.526 11.2631 190.818 11.2631C185.216 11.2631 180.946 15.8722 180.946 22.3327C180.946 28.5893 185.381 33.485 191.306 33.485C195.288 33.485 198.835 31.2314 199.993 27.9511ZM191.472 20.0581C190.179 20.1429 188.841 20.2306 187.362 20.3046V19.7723C187.382 17.2162 187.687 15.41 188.239 14.2469C188.514 13.6671 188.849 13.2519 189.236 12.9813C189.622 12.7115 190.068 12.5806 190.575 12.5806C191.453 12.5806 192.24 13.071 192.835 14.2496C193.424 15.417 193.816 17.2489 193.905 19.9045C193.096 19.9516 192.293 20.0042 191.472 20.0581Z" fill="#047B44"></path>
<path fill-rule="evenodd" clip-rule="evenodd" d="M0.645034 33.0564C3.04485 32.9893 5.01796 32.9893 7.02801 32.9893C8.03281 32.9893 9.05774 33.0095 10.0942 33.0299L10.1242 33.0306C11.1704 33.0512 12.2282 33.0719 13.286 33.0719C18.007 33.0719 21.2584 32.3385 23.3313 30.8549C25.4142 29.3642 26.2876 27.1311 26.2876 24.1918C26.2876 22.1164 25.5955 20.3997 24.213 19.0785C22.9203 17.843 21.0323 16.961 18.5645 16.4451C20.3063 15.9201 21.6376 15.1335 22.5534 14.1107C23.5558 12.9913 24.0526 11.5979 24.0526 9.98011C24.0526 8.2029 23.2291 6.61843 21.6973 5.48202C20.1679 4.34737 17.9364 3.6615 15.1147 3.6615C12.3941 3.6615 10.6168 3.73173 8.86541 3.80094C8.64849 3.80951 8.43199 3.81806 8.21418 3.82647C6.23825 3.9027 4.1495 3.9666 0.643103 3.91738C0.292543 3.91246 0 4.19927 0 4.55789C0 4.88566 0.242939 5.15481 0.556253 5.20167C1.69348 5.37174 2.51034 5.68798 3.04708 6.30851C3.58386 6.92907 3.86048 7.87739 3.86048 9.36043V27.6208C3.86048 29.1046 3.58359 30.0531 3.04627 30.6737C2.50899 31.2942 1.69128 31.6102 0.552856 31.7801C0.241482 31.8266 0 32.0941 0 32.4198C0 32.7789 0.292371 33.0662 0.645034 33.0564ZM10.358 15.9314V5.40831C11.195 5.21395 12.3166 5.06163 13.286 5.06163C14.493 5.06163 15.5243 5.52297 16.2563 6.43196C16.9905 7.34366 17.4331 8.71787 17.4331 10.5585C17.4331 12.4285 17.0986 13.763 16.2972 14.6325C15.4974 15.5001 14.2072 15.9314 12.2295 15.9314H10.358ZM14.0988 31.837C12.7996 31.837 11.8766 31.4824 11.2724 30.696C10.6625 29.9023 10.358 28.6452 10.358 26.7945V17.249H12.1075C14.446 17.249 16.2703 17.8433 17.5102 19.0635C18.7494 20.283 19.4243 22.1469 19.4243 24.7289C19.4243 26.9816 18.8602 28.76 17.9161 29.9725C16.9739 31.1825 15.6473 31.837 14.0988 31.837Z" fill="#047B44"></path>
<path d="M148.117 0.201433C148.227 -0.0671442 148.602 -0.0671442 148.711 0.201433L149.947 3.21881L153.153 3.47996C153.438 3.50321 153.554 3.86505 153.337 4.05428L150.894 6.18028L151.64 9.35903C151.706 9.64198 151.404 9.86563 151.159 9.71397L148.683 8.17715C148.518 8.07488 148.311 8.07488 148.146 8.17715L145.67 9.71397C145.425 9.86563 145.122 9.64198 145.189 9.35903L145.935 6.18028L143.492 4.05428C143.275 3.86505 143.391 3.50321 143.676 3.47996L146.882 3.21881L148.117 0.201433Z" fill="#047B44"></path>
</g>
<defs>
<clipPath id="clip0_917_219">
<rect width="200" height="35" fill="#047B44"></rect>
</clipPath>
</defs>
</svg>