<svg width="243" height="50" viewBox="0 0 243 50" fill="none" xmlns="http://www.w3.org/2000/svg">
<g clip-path="url(#clip0_622_824)">
<mask id="mask0_622_824" style="mask-type:luminance" maskUnits="userSpaceOnUse" x="0" y="0" width="243" height="49">
<path d="M243 0H0V48.137H243V0Z" fill="white"></path>
</mask>
<g mask="url(#mask0_622_824)">
<path d="M237.283 34.6221C236.953 34.6221 236.556 34.8863 236.39 35.2166L233.978 40.3022C233.813 40.6325 233.978 40.8965 234.276 40.8965H239.629C239.959 40.8965 240.356 40.6325 240.521 40.3022L242.934 35.2166C243.099 34.8863 242.934 34.6221 242.636 34.6221H237.283Z" fill="#EBEBDC"></path>
<path d="M150.741 28.0838C150.741 32.311 149.023 33.3347 146.776 33.3347C144.529 33.3347 142.811 32.278 142.811 28.0838C142.811 23.8569 144.529 22.8331 146.776 22.8331C149.023 22.8331 150.741 23.8899 150.741 28.0838ZM160.522 28.0838C160.522 18.9693 154.31 14.9404 146.776 14.9404C139.242 14.9404 133.03 19.0024 133.03 28.0838C133.03 37.1984 139.242 41.2274 146.776 41.2274C154.31 41.2274 160.522 37.1984 160.522 28.0838Z" fill="#EBEBDC"></path>
<path d="M163.43 40.8966H171.129C171.723 40.8966 172.187 40.4674 172.187 39.8729V24.2196C172.187 24.2196 174.169 23.2949 176.019 23.2949C177.011 23.2949 178.101 23.8233 178.101 25.7056V39.8729C178.101 40.4674 178.53 40.8966 179.159 40.8966H186.857C187.452 40.8966 187.915 40.4674 187.915 39.8729V23.7903C187.915 18.7046 186.263 14.8408 180.282 14.8408C176.217 14.8408 173.97 16.7232 172.153 18.6386C171.822 16.1287 169.74 15.138 167.163 15.138H163.495C162.901 15.138 162.439 15.5673 162.439 16.1618V39.8729C162.405 40.4674 162.834 40.8966 163.43 40.8966Z" fill="#EBEBDC"></path>
<path d="M205.363 24.0218C205.363 24.4511 205.296 24.9134 205.264 25.4418H199.117C199.117 22.0734 200.174 20.8515 202.356 20.8515C204.206 20.8845 205.363 21.7762 205.363 24.0218ZM213.887 25.8051C213.887 17.9784 209.097 14.9072 202.289 14.9072C193.929 14.9072 189.37 20.3892 189.37 28.0508C189.37 35.7453 193.433 41.1942 202.455 41.1942C206.85 41.1942 211.144 40.1044 212.829 38.4532C213.26 38.0239 213.49 37.2313 213.49 35.8113V34.2922C213.49 33.3345 213.061 32.8721 212.4 32.8721C211.805 32.8721 210.848 33.3015 209.393 33.5988C208.402 33.7968 207.18 33.9619 205.725 33.9619C201.165 33.9619 199.182 33.1694 199.182 29.867H213.623C213.821 28.6121 213.887 26.928 213.887 25.8051Z" fill="#EBEBDC"></path>
<path d="M218.81 48.4918H225.914C226.51 48.4918 227.105 48.4918 227.566 47.5011L232.82 36.3389L242.039 17.6145C242.436 16.888 242.7 16.2935 242.7 15.7321C242.7 15.2037 242.303 14.7744 241.709 14.7744H234.307C233.481 14.7744 233.052 14.9726 232.755 15.6661L227.699 26.5309C227.699 26.5309 226.674 24.0871 226.014 22.568L223.106 15.6661C222.841 15.0386 222.379 14.7744 221.553 14.7744H214.151C213.557 14.7744 213.16 15.2037 213.16 15.7321C213.16 16.3265 213.424 16.888 213.821 17.6145L223.04 36.3389L217.786 47.5011C217.786 48.0954 218.216 48.4918 218.81 48.4918Z" fill="#EBEBDC"></path>
<path d="M130.751 39.9722V10.5809C130.751 10.0525 130.321 9.65625 129.693 9.65625H122.49C121.895 9.65625 121.598 9.98649 121.399 10.3828L117.93 16.8554C117.005 18.5727 114.758 23.3942 114.758 23.3942C114.758 23.3942 112.445 18.4736 111.585 16.8554L110.297 14.4447L98.7646 30.8906V39.9722C98.7646 40.5005 99.1943 40.8968 99.822 40.8968H107.026C107.62 40.8968 108.083 40.5005 108.083 39.9722C108.083 39.9722 107.918 25.0123 108.083 25.0123C108.182 25.0123 109.339 27.5882 110.891 30.197L112.445 32.839C112.841 33.4663 113.171 33.6645 113.766 33.6645H115.848C116.443 33.6645 116.773 33.5324 117.17 32.839L118.723 30.197C120.276 27.5552 121.399 25.0123 121.531 25.0123C121.697 25.0123 121.531 39.9722 121.531 39.9722C121.531 40.5005 121.961 40.8968 122.589 40.8968H129.792C130.288 40.8968 130.751 40.5005 130.751 39.9722Z" fill="#EBEBDC"></path>
<path d="M9.23318 34.6207V35.1681H9.78082H13.4156C14.821 35.1681 16.0383 34.9909 16.9015 34.3391C17.8046 33.6567 18.1928 32.5609 18.1928 31.0541C18.1928 29.7494 17.7525 28.7273 16.8548 28.053C15.9867 27.4012 14.773 27.1384 13.3495 27.1384H9.78082H9.23318V27.6856V34.6207ZM9.23318 21.4441V21.9915H9.78082H12.5895C13.6734 21.9915 14.7205 21.9102 15.4912 21.407C16.3257 20.8621 16.7058 19.9251 16.7058 18.5711C16.7058 17.9851 16.5872 17.4697 16.3364 17.0326C16.0843 16.5933 15.7188 16.268 15.2815 16.0332C14.4318 15.5771 13.2818 15.4479 12.0278 15.4479H9.78082H9.23318V15.9952V21.4441ZM20.8224 23.7197L19.6245 24.2626L20.854 24.7298C22.7978 25.4683 24.2574 26.4132 25.2306 27.5992C26.1954 28.7754 26.713 30.2262 26.713 32.0447C26.713 34.6087 25.7805 36.6835 24.0254 38.128C22.2572 39.5834 19.5947 40.447 16.059 40.447H1.05741C0.66962 40.447 0.547668 40.2368 0.547668 40.0696V10.5463C0.547668 10.379 0.66962 10.1689 1.05741 10.1689H15.3321C18.7258 10.1689 21.1541 10.9531 22.7246 12.2445C24.2799 13.5236 25.0609 15.3552 25.0609 17.6134C25.0609 20.4012 23.503 22.5048 20.8224 23.7197Z" fill="#EBEBDC" stroke="#EBEBDC" stroke-width="0.676103"></path>
<path d="M44.7073 25.9886H45.2218L45.2539 25.4755C45.2643 25.3098 45.2801 25.1331 45.2962 24.954C45.3248 24.634 45.3542 24.3065 45.3542 24.0214C45.3542 22.8093 45.0409 21.8602 44.3794 21.2148C43.7222 20.5735 42.8119 20.3217 41.8093 20.3038L41.7996 20.3037C40.6024 20.3037 39.5965 20.6453 38.9221 21.5579C38.2783 22.4289 38.0136 23.724 38.0136 25.4414V25.9886H38.5613H44.7073ZM48.9452 34.135L48.9475 34.1345C49.6418 33.9926 50.2275 33.8213 50.6997 33.6832C50.7395 33.6715 50.7786 33.6602 50.8166 33.649C51.3384 33.4968 51.6427 33.4191 51.8447 33.4191C52.0373 33.4191 52.1418 33.48 52.2115 33.5664C52.2952 33.6699 52.3874 33.8852 52.3874 34.2918V35.8109C52.3874 37.2101 52.1506 37.8007 51.8888 38.064C51.1483 38.7882 49.7658 39.4424 47.9641 39.9129C46.1796 40.3789 44.054 40.6464 41.8987 40.6464C37.5014 40.6464 34.3918 39.3218 32.376 37.1364C30.3531 34.9434 29.3612 31.807 29.3612 28.0503C29.3612 24.326 30.4683 21.1851 32.538 18.9799C34.6026 16.7799 37.6783 15.4541 41.7335 15.4541C45.0655 15.4541 47.8172 16.2071 49.7298 17.8372C51.6265 19.4537 52.784 22.0075 52.784 25.8047C52.784 26.7805 52.7331 28.1727 52.591 29.3192H38.6274H38.0797V29.8666C38.0797 30.743 38.2106 31.4995 38.514 32.1352C38.8222 32.7807 39.2933 33.27 39.9162 33.6271C41.1216 34.3183 42.8937 34.5089 45.17 34.5089C46.6662 34.5089 47.9253 34.3389 48.9452 34.135Z" fill="#EBEBDC" stroke="#EBEBDC" stroke-width="0.676103"></path>
<path d="M67.5665 25.3186L67.5759 25.3203C70.1332 25.7656 72.1896 26.3282 73.6088 27.3833C74.9796 28.4025 75.8126 29.9268 75.8126 32.4757C75.8126 35.379 74.5665 37.4007 72.6654 38.7171C70.7404 40.0504 68.1098 40.6796 65.3568 40.6796C60.9792 40.6796 58.169 39.3622 56.9848 38.6462C56.3525 38.2572 56.0546 37.996 55.898 37.7569C55.756 37.5402 55.6942 37.2865 55.6942 36.8018V33.2682C55.6942 32.7628 55.7826 32.5283 55.8581 32.4271C55.9059 32.363 55.988 32.2965 56.2369 32.2965C56.5482 32.2965 56.7964 32.3931 57.5387 32.7639C58.2947 33.1665 59.316 33.6644 60.4064 34.0628C61.4921 34.4598 62.6857 34.7733 63.7707 34.7733C64.5496 34.7733 65.326 34.6922 65.924 34.3935C66.2331 34.239 66.5088 34.0193 66.7046 33.7118C66.9015 33.4031 66.9949 33.0414 66.9949 32.6407C66.9949 32.2597 66.9169 31.916 66.7453 31.6168C66.5734 31.3173 66.3288 31.0989 66.0531 30.9355C65.5298 30.6259 64.8275 30.481 64.1353 30.3523L64.1293 30.3513C61.7641 29.938 59.6926 29.4317 58.2111 28.4164C56.7813 27.4364 55.8594 25.9524 55.8594 23.4271C55.8594 20.7103 57.0686 18.75 58.9 17.4502C60.751 16.1367 63.2584 15.4873 65.8195 15.4873C69.5891 15.4873 72.4364 16.5517 73.7424 17.2975L73.7546 17.3042C74.3587 17.6294 74.6525 17.903 74.808 18.1544C74.9587 18.3982 75.0195 18.6852 75.0195 19.134V22.4694C75.0195 22.9748 74.931 23.2092 74.8555 23.3104C74.8077 23.3746 74.7256 23.4412 74.4768 23.4412C74.1508 23.4412 73.755 23.3264 73.2093 22.9931L73.1897 22.9817C71.6934 22.1509 69.7698 21.1295 67.1411 21.1295C66.558 21.1295 65.9428 21.2365 65.4556 21.5518C64.9354 21.8886 64.611 22.4336 64.611 23.1629C64.611 23.4905 64.6749 23.7997 64.836 24.0764C64.997 24.3532 65.2304 24.5547 65.4987 24.7076C66.0043 24.9956 66.7255 25.1569 67.5665 25.3186Z" fill="#EBEBDC" stroke="#EBEBDC" stroke-width="0.676103"></path>
<path d="M90.3212 14.8078V15.3551H90.8689H93.904L90.4179 20.4084L90.3212 20.5487V20.719V32.5663L84.9078 40.2462C83.9433 39.886 83.161 39.3416 82.6024 38.6244C81.9759 37.8199 81.6027 36.7615 81.6027 35.4146V20.653V20.1057H81.055H78.5438C78.3452 20.1057 78.2219 20.0444 78.1532 19.9804C78.0881 19.9196 78.034 19.8215 78.034 19.6623V15.8645C78.034 15.6396 78.2161 15.4212 78.5438 15.4212H81.055H81.6027V14.8738V10.5147C81.6027 10.2897 81.7848 10.0713 82.1123 10.0713H89.8116C90.01 10.0713 90.1333 10.1325 90.202 10.1965C90.2671 10.2574 90.3212 10.3554 90.3212 10.5147V14.8078Z" fill="#EBEBDC" stroke="#EBEBDC" stroke-width="0.676103"></path>
</g>
</g>
<defs>
<clipPath id="clip0_622_824">
<rect width="243" height="50" fill="white"></rect>
</clipPath>
</defs>
</svg>