<svg width="200" height="35" viewBox="0 0 200 35" fill="none" xmlns="http://www.w3.org/2000/svg">
<g clip-path="url(#clip0_622_839)">
<path fill-rule="evenodd" clip-rule="evenodd" d="M47.3283 27.9507C47.346 27.9005 47.3294 27.8443 47.2874 27.8123L46.7998 27.4405C46.7503 27.4027 46.6805 27.4096 46.639 27.4562C45.525 28.7102 43.8511 29.5231 41.7703 29.5231C39.6832 29.5231 38.032 28.8713 36.8505 27.549C35.6839 26.2434 34.9617 24.2692 34.7471 21.5798C36.1796 21.5037 37.6176 21.4221 39.0794 21.3392C41.5593 21.1985 44.1079 21.0539 46.8148 20.9253C46.8764 20.9224 46.9258 20.8723 46.9288 20.8097C47.0723 17.8089 46.2422 15.4189 44.6858 13.7787C43.1298 12.139 40.861 11.2627 38.1535 11.2627C32.5513 11.2627 28.281 15.8718 28.281 22.3323C28.281 28.5889 32.7161 33.4846 38.6412 33.4846C42.6227 33.4846 46.17 31.2311 47.3283 27.9507ZM38.8074 20.0577C37.5149 20.1425 36.1766 20.2303 34.6973 20.3042V19.7714C34.7176 17.2156 35.0222 15.4096 35.5744 14.2466C35.8496 13.6667 36.1841 13.2515 36.5712 12.981C36.9574 12.7111 37.403 12.5802 37.9098 12.5802C38.7887 12.5802 39.5757 13.0706 40.1703 14.2492C40.7592 15.4166 41.1515 17.2485 41.2404 19.9041C40.432 19.9512 39.6285 20.0039 38.8074 20.0577Z" fill="#EBEBDC"></path>
<path d="M63.9644 18.7111C63.9868 18.7554 64.0335 18.7813 64.0823 18.7767L64.9356 18.694C64.9981 18.688 65.0454 18.634 65.044 18.5703C65.0034 16.6316 65.044 14.6511 65.0847 12.709C65.0856 12.663 65.061 12.6204 65.021 12.5989C64.3137 12.2182 63.1615 11.8851 61.9087 11.6469C60.6533 11.4083 59.2845 11.2627 58.138 11.2627C55.6633 11.2627 53.6132 11.8342 52.1788 12.9293C50.7401 14.0276 49.9315 15.6448 49.9315 17.7053C49.9315 19.5932 50.7038 21.0074 51.8541 22.1321C53.0004 23.253 54.5242 24.0888 56.0338 24.8278C56.4099 25.0118 56.7845 25.1897 57.1525 25.3644C58.2694 25.8947 59.3247 26.3957 60.1695 26.9518C61.2926 27.6912 62.0006 28.5012 62.0006 29.5622C62.0006 30.3365 61.718 31.0063 61.2251 31.4828C60.7319 31.9596 60.0211 32.2498 59.1539 32.2498C56.486 32.2498 53.3485 29.7029 51.1639 24.6992C51.053 24.4452 50.7949 24.2864 50.52 24.3131C50.1873 24.3452 49.9368 24.6352 49.9484 24.9746C50.0124 26.841 50.0728 28.7283 50.0895 30.5966C50.0954 31.2532 50.4036 31.8994 51.0229 32.1676C52.7943 32.9344 55.9386 33.4846 58.0567 33.4846C61.0783 33.4846 63.3034 32.8311 64.7754 31.6403C66.2517 30.446 66.954 28.7243 66.954 26.6289C66.954 24.9027 66.181 23.5813 65.036 22.507C63.8944 21.4359 62.3767 20.6044 60.8728 19.8528C60.548 19.6904 60.2239 19.532 59.9043 19.3755C58.7379 18.8048 57.6299 18.2627 56.7517 17.668C55.631 16.9091 54.9256 16.0914 54.9256 15.0613C54.9256 14.282 55.1707 13.6436 55.6067 13.2004C56.0425 12.7572 56.6806 12.4976 57.4878 12.4976C58.6934 12.4976 59.7417 12.9275 60.7734 13.9156C61.8097 14.9081 62.8284 16.4631 63.9644 18.7111Z" fill="#EBEBDC"></path>
<path d="M83.3974 30.3344C83.4303 30.2861 83.4248 30.2207 83.3837 30.179L82.8145 29.6007C82.7919 29.5779 82.7618 29.565 82.7303 29.565C82.6981 29.565 82.6679 29.5779 82.6453 29.6007C82.3056 29.9463 81.7282 30.1847 81.1042 30.1847C79.3618 30.1847 77.6481 28.567 77.6481 25.5141V13.4897H82.2015C82.2679 13.4897 82.3214 13.4352 82.3214 13.368V12.2939C82.3214 12.2267 82.2679 12.1722 82.2015 12.1722H77.6481V7.00582C77.6481 6.96242 77.6255 6.92231 77.5885 6.90055L76.8166 6.44606C76.77 6.41882 76.7118 6.42611 76.6734 6.46392C74.2857 8.81003 71.8248 10.7949 67.6341 12.5413C67.4524 12.617 67.3309 12.797 67.3309 12.9982C67.3309 13.2697 67.5474 13.4897 67.8146 13.4897H70.5159C70.9782 13.4897 71.3535 13.8711 71.3535 14.3415V26.3403C71.3535 28.6166 72.0323 30.4044 73.1645 31.6241C74.2967 32.8441 75.8741 33.4852 77.6501 33.4852C79.8851 33.4852 81.994 32.3905 83.3974 30.3344Z" fill="#EBEBDC"></path>
<path fill-rule="evenodd" clip-rule="evenodd" d="M110.616 30.4974C110.657 30.4763 110.682 30.4339 110.681 30.3878C110.651 27.6617 110.663 25.5654 110.74 23.9495C110.817 22.3322 110.957 21.2035 111.18 20.4092C111.401 19.6169 111.7 19.1699 112.087 18.8991C112.477 18.6252 112.974 18.5188 113.622 18.4467C113.683 18.44 113.729 18.3878 113.729 18.3258V17.3342C113.729 17.3013 113.716 17.2698 113.693 17.2469C113.67 17.224 113.638 17.2116 113.606 17.2126C110.966 17.2952 109.667 17.2952 107.513 17.2952C105.76 17.2952 103.596 17.2952 99.7299 17.2223C99.3874 17.2158 99.1045 17.496 99.1045 17.845C99.1045 18.1805 99.3662 18.4504 99.6895 18.4744C101.448 18.6057 102.511 19.0433 103.165 19.8364C103.822 20.6343 104.087 21.8173 104.184 23.4973C104.344 26.1486 104.346 28.841 104.228 31.5345C103.268 31.8006 102.343 32.0439 101.174 32.0439C98.8682 32.0439 96.5552 30.6796 94.8189 27.9629C93.0826 25.2458 91.9278 21.1809 91.9477 15.8063C91.9682 12.2084 92.7874 9.40425 94.0703 7.50341C95.3525 5.60435 97.0963 4.60754 98.9799 4.60754C102.274 4.60754 105.334 7.2264 108.053 13.9514C108.074 14.0023 108.125 14.0328 108.179 14.0259L109.154 13.9021C109.215 13.8942 109.261 13.8403 109.259 13.7775C109.192 11.5441 109.265 9.31098 109.338 7.07334V7.07174C109.352 6.62436 109.368 6.17679 109.381 5.72899C109.382 5.68641 109.361 5.64626 109.326 5.62311C108.272 4.9298 106.631 4.34757 104.812 3.93843C102.991 3.52873 100.981 3.29004 99.1833 3.29004C94.7881 3.29004 91.1888 4.76643 88.6895 7.39654C86.1901 10.0262 84.8004 13.7975 84.8004 18.3671C84.8004 22.9806 86.3134 26.7627 88.9456 29.3914C91.5771 32.0199 95.3169 33.4853 99.7525 33.4853C101.791 33.4853 103.376 33.3299 105.021 32.8769C106.663 32.4243 108.359 31.6762 110.616 30.4974Z" fill="#EBEBDC"></path>
<path d="M123.559 33.4847C126.189 33.4847 129.078 32.1167 131.12 29.8788V32.3717C131.12 32.6962 131.286 32.9975 131.559 33.1668C131.812 33.324 132.123 33.3459 132.396 33.2323C134.905 32.1876 137.102 31.6583 140.186 31.5015C140.25 31.4983 140.3 31.4448 140.3 31.38V30.5124C140.3 30.4554 140.261 30.406 140.206 30.3937C139.123 30.1489 138.391 29.7558 137.928 29.1469C137.463 28.5371 137.252 27.6907 137.252 26.5051V11.5497C137.252 11.5074 137.231 11.468 137.195 11.4459L136.463 10.9915C136.42 10.9649 136.365 10.9683 136.326 10.9999C133.723 13.0939 130.932 14.619 128.313 15.6479C128.072 15.7429 127.91 15.9783 127.91 16.243C127.91 16.5964 128.191 16.8663 128.519 16.9044C129.298 16.9949 129.906 17.3028 130.319 17.7569C130.732 18.2106 130.958 18.8183 130.958 19.5232V26.8926C130.958 27.8173 130.652 28.7279 129.952 29.2765C128.972 30.0445 127.852 30.4734 126.607 30.4734C125.729 30.4734 125.048 30.1293 124.579 29.4075C124.105 28.6772 123.842 27.5485 123.842 25.968V11.5497C123.842 11.5074 123.82 11.468 123.785 11.4459L123.053 10.9915C123.011 10.9649 122.956 10.9683 122.916 10.9999C120.313 13.0939 117.522 14.619 114.903 15.6479C114.661 15.7429 114.5 15.9783 114.5 16.243C114.5 16.5964 114.781 16.8663 115.109 16.9044C115.887 16.9949 116.496 17.3028 116.909 17.7569C117.322 18.2106 117.548 18.8183 117.548 19.5232V27.2074C117.548 29.6964 118.393 31.2732 119.579 32.2243C120.761 33.1714 122.263 33.4847 123.559 33.4847Z" fill="#EBEBDC"></path>
<path d="M153.955 33.0716C153.987 33.0726 154.019 33.0602 154.042 33.0373C154.065 33.0144 154.078 32.9828 154.078 32.9499V31.9584C154.078 31.8995 154.037 31.849 153.98 31.8386C153.215 31.6989 152.588 31.3537 152.147 30.6C151.701 29.8378 151.437 28.6453 151.437 26.7943V11.5497C151.437 11.5074 151.415 11.468 151.38 11.4459L150.648 10.9915C150.606 10.9649 150.551 10.9683 150.512 10.9999C147.913 13.0898 145.128 14.6132 142.514 15.642C142.263 15.7406 142.095 15.9849 142.095 16.2597C142.095 16.6052 142.357 16.8816 142.682 16.9308C143.537 17.0602 144.149 17.3419 144.547 17.7662C144.943 18.1887 145.143 18.7677 145.143 19.5232V27.6206C145.143 29.0661 144.88 30.0092 144.441 30.6332C144.005 31.2542 143.382 31.5766 142.623 31.7547C142.325 31.8245 142.095 32.0871 142.095 32.4081C142.095 32.7736 142.393 33.0664 142.752 33.0569C146.85 32.9479 150.178 32.9528 153.955 33.0716Z" fill="#EBEBDC"></path>
<path fill-rule="evenodd" clip-rule="evenodd" d="M165.747 11.2214C167.44 11.2214 168.984 11.7183 170.342 12.7483V11.2605C170.342 10.505 170.142 9.92597 169.746 9.50357C169.347 9.07921 168.736 8.79759 167.881 8.66819C167.555 8.61887 167.294 8.34247 167.294 7.99695C167.294 7.72216 167.462 7.478 167.712 7.37915C170.316 6.35081 172.989 4.82789 175.588 2.73721C175.628 2.70555 175.682 2.7022 175.725 2.72881L176.457 3.18325C176.492 3.20536 176.514 3.24468 176.514 3.28706V26.7942C176.514 28.6462 176.778 29.8354 177.271 30.5951C177.759 31.3465 178.483 31.6962 179.459 31.8379C179.518 31.8464 179.562 31.8978 179.562 31.9583V32.9498C179.562 32.9827 179.549 33.0142 179.525 33.0371C179.502 33.06 179.471 33.0724 179.438 33.0715C176.183 32.9786 175.185 32.9554 173.066 33.0016C171.652 33.0323 170.467 31.9612 170.317 30.5651C168.701 32.3547 166.636 33.4433 164.447 33.4433C159.94 33.4433 155.875 29.6586 155.875 22.9934C155.875 19.2554 156.825 16.3113 158.54 14.2999C160.258 12.2864 162.731 11.2214 165.747 11.2214ZM167.292 30.432C165.968 30.432 164.767 29.8924 163.892 28.5499C163.011 27.1998 162.453 25.0278 162.453 21.754C162.453 18.4564 162.91 16.2195 163.688 14.8109C164.46 13.4125 165.548 12.8281 166.844 12.8281C167.97 12.8281 169.225 13.4147 170.22 14.33V28.6532C169.783 29.0947 169.315 29.5353 168.825 29.8684C168.322 30.2108 167.807 30.432 167.292 30.432Z" fill="#EBEBDC"></path>
<path fill-rule="evenodd" clip-rule="evenodd" d="M199.993 27.9507C200.011 27.9005 199.994 27.8443 199.952 27.8123L199.464 27.4405C199.415 27.4027 199.345 27.4096 199.303 27.4562C198.19 28.7102 196.516 29.5231 194.435 29.5231C192.348 29.5231 190.696 28.8713 189.515 27.549C188.348 26.2434 187.627 24.2692 187.411 21.5798C188.844 21.5037 190.282 21.4221 191.744 21.3392C194.224 21.1985 196.772 21.0539 199.479 20.9253C199.541 20.9224 199.59 20.8723 199.593 20.8097C199.737 17.8089 198.907 15.4189 197.351 13.7787C195.794 12.139 193.526 11.2627 190.818 11.2627C185.216 11.2627 180.946 15.8718 180.946 22.3323C180.946 28.5889 185.381 33.4846 191.306 33.4846C195.288 33.4846 198.835 31.2311 199.993 27.9507ZM191.472 20.0577C190.179 20.1425 188.841 20.2303 187.362 20.3042V19.7719C187.382 17.2158 187.687 15.4097 188.239 14.2466C188.514 13.6667 188.848 13.2515 189.235 12.981C189.622 12.7111 190.068 12.5802 190.575 12.5802C191.453 12.5802 192.24 13.0706 192.835 14.2492C193.424 15.4166 193.816 17.2485 193.905 19.9041C193.096 19.9512 192.293 20.0039 191.472 20.0577Z" fill="#EBEBDC"></path>
<path fill-rule="evenodd" clip-rule="evenodd" d="M0.645034 33.056C3.04485 32.9889 5.01796 32.9889 7.02801 32.9889C8.03281 32.9889 9.05774 33.0091 10.0942 33.0296L10.1242 33.0302C11.1704 33.0508 12.2282 33.0715 13.286 33.0715C18.007 33.0715 21.2584 32.3382 23.3313 30.8546C25.4142 29.3638 26.2876 27.1308 26.2876 24.1915C26.2876 22.116 25.5955 20.3994 24.213 19.0781C22.9203 17.8427 21.0323 16.9607 18.5645 16.4447C20.3063 15.9198 21.6376 15.1331 22.5534 14.1103C23.5558 12.991 24.0526 11.5976 24.0526 9.97975C24.0526 8.20253 23.2291 6.61806 21.6973 5.48166C20.1679 4.347 17.9364 3.66113 15.1147 3.66113C12.3941 3.66113 10.6168 3.73136 8.86541 3.80057C8.64849 3.80914 8.43199 3.8177 8.21418 3.8261C6.23825 3.90233 4.1495 3.96624 0.643103 3.91701C0.292543 3.9121 0 4.1989 0 4.55753C0 4.8853 0.242939 5.15445 0.556253 5.2013C1.69348 5.37137 2.51034 5.68761 3.04708 6.30814C3.58386 6.9287 3.86048 7.87703 3.86048 9.36006V27.6205C3.86048 29.1042 3.58359 30.0527 3.04627 30.6733C2.50899 31.2939 1.69128 31.6099 0.552856 31.7797C0.241482 31.8262 0 32.0937 0 32.4194C0 32.7785 0.292371 33.0658 0.645034 33.056ZM10.358 15.9311V5.40795C11.195 5.21359 12.3166 5.06126 13.286 5.06126C14.493 5.06126 15.5243 5.52261 16.2563 6.43159C16.9905 7.34329 17.4331 8.7175 17.4331 10.5581C17.4331 12.4281 17.0986 13.7626 16.2972 14.6321C15.4974 15.4997 14.2072 15.9311 12.2295 15.9311H10.358ZM14.0988 31.8367C12.7996 31.8367 11.8766 31.482 11.2724 30.6957C10.6625 29.9019 10.358 28.6448 10.358 26.7942V17.2486H12.1075C14.446 17.2486 16.2703 17.8429 17.5102 19.0631C18.7494 20.2826 19.4243 22.1465 19.4243 24.7286C19.4243 26.9813 18.8602 28.7597 17.9161 29.9721C16.9739 31.1821 15.6473 31.8367 14.0988 31.8367Z" fill="#EBEBDC"></path>
<path d="M148.118 0.201433C148.227 -0.0671442 148.602 -0.0671442 148.711 0.201433L149.947 3.21881L153.153 3.47996C153.438 3.50321 153.554 3.86505 153.337 4.05428L150.894 6.18028L151.64 9.35903C151.707 9.64198 151.404 9.86563 151.159 9.71397L148.683 8.17715C148.518 8.07488 148.311 8.07488 148.146 8.17715L145.67 9.71397C145.425 9.86563 145.122 9.64198 145.189 9.35903L145.935 6.18028L143.492 4.05428C143.275 3.86505 143.391 3.50321 143.676 3.47996L146.882 3.21881L148.118 0.201433Z" fill="#EBEBDC"></path>
</g>
<defs>
<clipPath id="clip0_622_839">
<rect width="200" height="35" fill="white"></rect>
</clipPath>
</defs>
</svg>