<svg width="329" height="48" viewBox="0 0 329 48" fill="none" xmlns="http://www.w3.org/2000/svg">
<g clip-path="url(#clip0_622_862)">
<mask id="mask0_622_862" style="mask-type:alpha" maskUnits="userSpaceOnUse" x="3" y="0" width="42" height="48">
<path d="M21.2727 1.57452C22.9604 0.600159 25.0396 0.600159 26.7273 1.57452L42.0573 10.4253C43.745 11.3997 44.7846 13.2004 44.7846 15.1491V32.8507C44.7846 34.7994 43.745 36.6001 42.0573 37.5745L26.7273 46.4253C25.0396 47.3997 22.9604 47.3997 21.2727 46.4253L5.94267 37.5745C4.25502 36.6001 3.21539 34.7994 3.21539 32.8507V15.1491C3.21539 13.2004 4.25502 11.3997 5.94267 10.4253L21.2727 1.57452Z" fill="#047B44"></path>
</mask>
<g mask="url(#mask0_622_862)">
<path d="M45.8182 0H2.18182V48H45.8182V0Z" fill="#047B44"></path>
</g>
<mask id="mask1_622_862" style="mask-type:luminance" maskUnits="userSpaceOnUse" x="13" y="14" width="22" height="20">
<path d="M34.1132 14.1816H13.9091V33.8703H34.1132V14.1816Z" fill="#047B44"></path>
</mask>
<g mask="url(#mask1_622_862)">
<mask id="mask2_622_862" style="mask-type:alpha" maskUnits="userSpaceOnUse" x="14" y="14" width="20" height="19">
<path d="M24.0754 14.1953L26.7589 20.4926L33.5145 21.1258L28.4174 25.6509L29.9091 32.3395L24.0754 28.8389L18.2418 32.3395L19.7335 25.6509L14.6364 21.1258L21.392 20.4926L24.0754 14.1953Z" fill="#047B44"></path>
</mask>
<g mask="url(#mask2_622_862)">
<path d="M15.2892 14.1953H35.1383C35.3068 14.1953 35.4433 14.3319 35.4433 14.5003V32.0386C35.4433 32.867 34.7717 33.5386 33.9433 33.5386H15.2892C14.4608 33.5386 13.7892 32.867 13.7892 32.0386V15.6953C13.7892 14.8669 14.4608 14.1953 15.2892 14.1953Z" fill="#047B44"></path>
</g>
</g>
<path d="M54 24.7032C54 16.0168 60.3287 12.0459 68.2705 12.0459C71.0625 12.0459 73.3582 12.2941 75.0955 12.8525L75.8401 21.2287H75.3437C73.9787 18.8709 72.1173 16.265 71.2487 15.0862C70.0078 13.535 69.3253 12.9766 68.3325 12.9766C65.9128 12.9766 65.0441 15.5825 65.0441 24.0207C65.0441 33.5137 66.3471 36.0576 68.7048 36.0576C70.1319 36.0576 70.9385 35.1889 72.1173 33.5757C73.4203 31.7764 74.5371 29.6669 75.6539 27.4953H76.1503L75.6539 35.6233C73.3582 36.4919 70.6282 36.9262 67.588 36.9262C58.9636 36.9883 54 32.4589 54 24.7032Z" fill="#047B44"></path>
<path d="M77.7014 27.433C77.7014 20.2357 83.2855 17.7539 88.4353 17.7539C93.7092 17.7539 99.1071 20.7941 99.1071 27.3089C99.1071 34.5062 93.7092 36.988 88.4353 36.988C82.8512 36.988 77.7014 33.9478 77.7014 27.433ZM88.4973 35.9953C89.5521 35.9953 89.9864 35.0025 89.9864 27.6191C89.9864 19.6773 89.5521 18.6845 88.3733 18.6845C87.3805 18.6845 86.8842 19.6773 86.8842 27.0607C86.8221 35.0025 87.2564 35.9953 88.4973 35.9953Z" fill="#047B44"></path>
<path d="M99.2312 36.5542V35.9958L99.3553 35.9338C101.093 35.3133 101.155 35.3133 101.155 33.7001V22.5319C101.155 20.6705 101.155 20.6705 99.7896 19.6158L99.2312 19.1814V18.8712L109.717 17.7544L109.965 17.9405L109.903 20.6705H109.965C111.888 19.0574 114.37 17.6924 116.914 17.6924C119.83 17.6924 121.878 19.4917 121.878 22.3458V33.7622C121.878 35.3133 122.002 35.4374 123.553 35.9338L123.739 35.9958V36.5542H111.764V35.9958L111.951 35.9338C112.757 35.6856 112.943 35.4374 112.943 34.0103V23.7728C112.943 22.0976 112.323 21.4151 111.082 21.4151C110.71 21.4151 110.337 21.4771 110.089 21.5392V33.9483C110.089 35.3753 110.213 35.6235 111.02 35.8717L111.268 35.9338V36.4922H99.2312V36.5542Z" fill="#047B44"></path>
<path d="M130.13 31.4039C125.166 29.9768 124.049 27.6191 124.049 24.2687C124.049 20.4839 126.841 17.7539 133.046 17.7539C135.094 17.7539 136.831 18.002 138.444 18.4364L138.754 23.6482H138.382C137.451 22.4693 136.583 21.4766 135.776 20.67C134.349 19.1809 133.604 18.7466 132.364 18.7466C131.061 18.7466 130.316 19.5532 130.316 20.5459C130.316 21.6627 131.061 22.2832 133.666 23.0898C138.444 24.6409 140.057 26.4403 140.057 29.7907C140.057 34.0098 137.079 36.926 130.626 36.926C128.455 36.926 126.159 36.7398 124.422 36.2435L124.174 30.3491H124.546C125.663 31.9003 126.531 32.893 127.71 34.1339C129.075 35.561 130.13 35.9332 131.247 35.9332C132.736 35.9332 133.356 35.1887 133.356 33.9478C133.294 32.893 132.55 32.1484 130.13 31.4039Z" fill="#047B44"></path>
<path d="M153.831 22.4693C153.831 20.67 153.831 20.5459 152.652 19.6773L152.032 19.243V18.8707L162.518 17.7539L162.704 17.94V32.5207C162.704 34.3821 162.828 34.5682 164.007 34.9405L164.565 35.1266V35.623L154.08 36.988L153.831 36.8019L153.893 34.1339H153.831C151.66 36.1194 149.736 36.988 147.192 36.988C144.587 36.988 142.043 35.4369 142.043 32.0244V22.4693C142.043 20.67 141.981 20.67 140.74 19.6773L140.119 19.243V18.8707L150.791 17.7539L150.977 17.94V30.6594C150.977 32.6448 151.474 33.3273 152.777 33.3273C153.211 33.3273 153.583 33.2653 153.769 33.1412V22.4693H153.831Z" fill="#047B44"></path>
<path d="M189.135 23.7723C189.135 22.0971 188.515 21.4146 187.336 21.4146C187.088 21.4146 186.591 21.4766 186.405 21.5386C186.467 21.7248 186.467 22.2832 186.467 22.8416V34.1339C186.467 35.4369 186.591 35.685 187.336 35.9332L187.522 35.9953V36.5537H176.416V35.9953L176.602 35.9332C177.409 35.685 177.471 35.4369 177.471 34.1339V23.7723C177.471 22.0971 176.85 21.4146 175.671 21.4146C175.423 21.4146 174.927 21.4766 174.741 21.5386V34.1339C174.741 35.4369 174.865 35.685 175.671 35.9332L175.857 35.9953V36.5537H163.883V35.9953L164.007 35.9332C165.806 35.3128 165.806 35.3128 165.806 33.6996V22.5314C165.806 20.67 165.744 20.67 164.441 19.6152L163.883 19.1809V18.8707L174.368 17.7539L174.617 17.94L174.555 20.7321H174.617C176.54 19.1189 179.022 17.7539 181.38 17.7539C183.675 17.7539 185.413 18.7466 186.033 20.7321H186.095C188.018 19.1189 190.748 17.7539 193.106 17.7539C196.022 17.7539 197.946 19.5532 197.946 22.4073V33.7616C197.946 35.3128 198.008 35.3748 199.621 35.9332L199.807 35.9953V36.5537H188.018V35.9953L188.205 35.9332C189.011 35.685 189.073 35.4369 189.073 34.1339V23.7723H189.135Z" fill="#047B44"></path>
<path d="M199.993 27.6191C199.993 22.035 204.088 17.7539 210.417 17.7539C216.001 17.7539 219.165 20.2977 219.475 26.1921H208.742C208.804 31.9003 210.665 33.3273 214.574 33.3273C216.063 33.3273 217.552 32.955 218.793 32.3346V32.8309C217.366 34.8785 214.636 36.926 209.92 36.926C203.654 36.988 199.993 33.9478 199.993 27.6191ZM208.68 25.3234L211.285 25.0132C211.285 19.9875 211.037 18.6225 209.982 18.6225C208.99 18.6846 208.68 19.9875 208.68 25.3234Z" fill="#047B44"></path>
<path d="M221.213 22.5314C221.213 20.67 221.213 20.67 219.848 19.6152L219.289 19.1809V18.8707L229.775 17.7539L230.023 17.94L229.961 20.8561H230.023C231.202 19.1809 232.939 17.8159 234.987 17.8159C237.221 17.8159 238.71 19.243 238.71 21.7248C238.71 24.0825 237.22 25.4475 235.111 25.4475C233.374 25.4475 232.257 24.703 231.45 22.9036C231.078 22.0971 230.954 21.8489 230.52 21.8489C230.333 21.8489 230.209 21.9109 230.085 22.035V33.8237C230.085 35.3748 230.209 35.4369 231.947 35.9953L232.319 36.1194V36.6778H219.227V36.1194L219.351 36.0573C221.151 35.4369 221.151 35.4369 221.151 33.8237V22.5314H221.213Z" fill="#047B44"></path>
<path d="M236.414 36.1815L237.035 35.9953C238.275 35.6231 238.462 35.2508 239.578 32.0244L246.714 12.418H248.575L255.524 32.3967C256.455 35.0647 256.889 35.6851 257.882 35.9333L258.626 36.1194V36.4917H249.382V36.1194L250.188 35.9333C251.305 35.6851 251.553 35.1887 251.553 34.5062C251.553 34.0099 251.305 33.0792 251.119 32.4587L249.568 27.7433H242.122L240.757 31.7142C240.323 33.0171 240.137 33.8237 240.137 34.3822C240.137 35.1887 240.509 35.6231 241.626 35.9333L242.557 36.1194V36.4917H236.352V36.1815H236.414ZM242.495 26.9987H249.32L246.031 17.0094H245.907L242.495 26.9987Z" fill="#047B44"></path>
<path d="M269.981 17.1337C269.981 12.8526 273.021 10.1846 277.178 10.1846C279.412 10.1846 280.714 11.1153 280.714 12.3562C280.714 13.2869 280.032 13.9694 279.039 13.9694C277.984 13.9694 277.488 13.473 277.178 11.984C277.054 11.2394 276.93 10.8671 276.371 10.8671C275.006 10.8671 273.641 12.1701 273.641 15.5206V18.809H277.24L277.116 20.0499H273.641V34.1963C273.641 35.4372 273.765 35.6854 274.696 35.8715L276.247 36.2438V36.616H267.809V36.2438L268.74 36.0576C269.857 35.8095 269.981 35.6233 269.981 34.2583V20.0499H264.397V34.1963C264.397 35.4992 264.521 35.7474 265.451 35.9335L266.94 36.2438V36.616H258.502V36.2438L259.495 35.9956C260.674 35.7474 260.798 35.5613 260.798 34.1963V20.0499H258.502V19.8017L260.798 18.809V17.506C260.798 13.349 263.342 10.619 267.561 10.619C269.732 10.619 270.973 11.5496 270.973 12.7285C270.973 13.6592 270.353 14.2796 269.36 14.2796C268.305 14.2796 267.809 13.7833 267.561 12.3562C267.437 11.6737 267.313 11.3015 266.754 11.3015C265.451 11.3015 264.397 12.6044 264.397 16.0169V18.9331H269.981V17.1337Z" fill="#047B44"></path>
<path d="M277.736 32.7072C277.736 29.4808 280.404 28.6122 283.072 27.9297L287.664 26.7508V22.966C287.664 20.4222 287.478 18.871 284.624 18.871C283.072 18.871 282.7 19.3053 282.514 20.4842C282.328 22.2835 281.769 22.904 280.529 22.904C279.412 22.904 278.729 22.2835 278.729 21.2908C278.729 19.1192 282.08 18.1885 285.244 18.1885C289.401 18.1885 291.262 19.7397 291.262 22.7799V33.5758C291.262 34.6306 291.511 35.127 291.945 35.3752C292.441 35.7474 293.062 35.8095 293.744 35.8095V36.0577C293.248 36.4299 292.069 36.8642 290.766 36.8642C288.967 36.8642 288.036 36.1197 287.788 34.6926H287.664C286.671 35.8715 284.996 36.9263 282.762 36.9263C279.722 36.9883 277.736 35.3752 277.736 32.7072ZM287.664 33.9481V27.8056L285.616 28.1779C282.824 28.6742 281.397 29.5429 281.397 32.0867C281.397 34.1963 282.452 35.3752 284.375 35.3752C285.989 35.3752 287.105 34.7547 287.664 33.9481Z" fill="#047B44"></path>
<path d="M294.054 36.1818L295.047 35.9337C296.226 35.6855 296.35 35.4993 296.35 34.1343V21.8493C296.35 20.5464 296.164 20.4843 294.985 19.8639L294.054 19.3675V19.1193L299.887 18.3748L300.073 18.4368C300.011 19.0573 299.949 20.2361 299.949 22.4698V34.1964C299.949 35.5614 300.135 35.6855 301.314 35.9957L302.244 36.2439V36.6162H294.054V36.1818ZM297.963 11.6738C299.142 11.6738 300.073 12.5425 300.073 13.7213C300.073 14.9623 299.142 15.7688 297.963 15.7688C296.722 15.7688 295.854 14.9623 295.854 13.7213C295.854 12.5425 296.784 11.6738 297.963 11.6738Z" fill="#047B44"></path>
<path d="M302.865 36.1817L303.857 35.9336C305.036 35.6854 305.16 35.4992 305.16 34.1342V21.8492C305.16 20.5463 305.036 20.4842 303.857 19.8017L302.989 19.3053V19.0572L308.573 18.3126L308.759 18.4367L308.697 20.9185H308.759C310.124 19.6776 311.923 18.1885 313.723 18.1885C315.15 18.1885 315.956 18.9951 315.956 20.2981C315.956 21.539 315.212 22.2215 314.095 22.2215C313.04 22.2215 312.606 21.601 312.296 20.9185C312.047 20.2981 311.923 20.174 311.489 20.174C310.869 20.174 309.69 20.8565 308.759 21.601V34.0722C308.759 35.3131 308.883 35.6233 309.938 35.8715L311.427 36.1197V36.492H302.865V36.1817Z" fill="#047B44"></path>
<path d="M316.391 36.1201L316.267 31.0324H316.639C317.197 32.1492 317.632 33.0799 318.128 33.8865C319.059 35.5617 320.051 36.2442 322.099 36.2442C324.208 36.2442 325.449 34.9412 325.449 33.0178C325.449 31.1564 324.333 30.2878 321.354 29.1089C318.19 27.868 316.453 26.3789 316.453 23.5248C316.453 20.4226 318.935 18.251 322.781 18.251C324.581 18.251 326.132 18.6232 327.311 19.0576L327.435 23.4628H327.063C326.442 22.2839 326.008 21.4153 325.511 20.7328C324.767 19.5539 323.96 19.0576 322.409 19.0576C320.238 19.0576 319.059 20.3605 319.059 22.0357C319.059 23.8351 320.362 24.7037 323.216 25.8205C326.38 27.1235 328.428 28.4264 328.428 31.4046C328.428 34.5069 326.07 37.0508 321.789 37.0508C319.555 36.9267 317.818 36.5544 316.391 36.1201Z" fill="#047B44"></path>
</g>
<defs>
<clipPath id="clip0_622_862">
<rect width="329" height="48" fill="#047B44"></rect>
</clipPath>
</defs>
</svg>