<svg width="141" height="35" viewBox="0 0 141 35" fill="none" xmlns="http://www.w3.org/2000/svg">
<path d="M79.5324 11.4085C79.5324 7.32398 79.6032 3.52114 79.8157 0L68.98 2.04226V3.02818L70.0424 3.16903C70.8214 3.23945 71.3171 3.52114 71.6004 3.94368C71.8837 4.43664 72.0962 5.14087 72.2378 6.19722C72.3795 8.23948 72.5211 12.8874 72.4503 20.2114C72.4503 27.4649 72.3795 32.0424 72.2378 33.803C76.133 34.6481 79.1783 35.0002 81.4446 35.0002C85.6939 35.0002 89.0225 33.803 91.4304 31.3382C93.8384 28.9438 95.1131 25.5635 95.1131 21.4086C95.1131 18.0987 94.1925 15.3522 92.3511 13.1691C90.5097 10.986 88.1726 9.92963 85.4106 9.92963C83.5693 9.92963 81.6571 10.4226 79.5324 11.4085ZM79.7449 33.0988C79.6032 30.8452 79.4616 24.0846 79.4616 13.0282C80.099 12.817 80.9489 12.6761 82.0112 12.6761C83.7109 12.6761 85.0565 13.5212 86.048 15.2818C87.0395 17.0423 87.5352 19.155 87.5352 21.8311C87.5352 25.141 86.9687 27.817 85.8355 30.0706C84.7024 32.2537 83.286 33.3805 81.5154 33.3805C80.9489 33.2396 80.3823 33.1692 79.7449 33.0988ZM28.3286 0.704229H0V2.11269L1.48725 2.25353C2.62039 2.4648 3.39943 2.88734 3.89518 3.52114C4.39093 4.22537 4.67421 5.35214 4.74503 6.90144C5.3116 14.5071 5.3116 21.6198 4.74503 28.1692C4.60339 29.7185 4.32011 30.8452 3.89518 31.5495C3.39943 32.2537 2.62039 32.6762 1.48725 32.8171L0 33.0283V34.4368H18.2719V33.0283L16.3597 32.8875C15.2266 32.7467 14.4476 32.2537 13.9518 31.6199C13.4561 30.9157 13.1728 29.7889 13.102 28.2396C12.8895 25.4227 12.7479 22.1832 12.7479 18.5916L16.5722 18.6621C18.626 18.7325 20.0425 20.2818 20.7507 23.3804H22.1671V11.9015H20.7507C20.0425 14.9297 18.6968 16.479 16.5722 16.5494L12.7479 16.6198C12.7479 10.2817 12.8895 5.77468 13.102 3.02818H18.6968C22.6628 3.02818 25.3541 5.56341 26.9121 10.6339L28.6118 10.1409L28.3286 0.704229ZM25 22.3945C25 26.0565 26.0623 29.0847 28.1161 31.479C30.1699 33.8734 33.2152 35.0002 37.0396 35.0002C40.8639 35.0002 43.9801 33.803 46.2464 31.3382C48.5127 28.9438 49.575 25.9156 49.575 22.2536C49.575 18.5916 48.5127 15.5635 46.4588 13.1691C44.405 10.7747 41.3597 9.64794 37.5353 9.64794C33.711 9.64794 30.5948 10.8451 28.3286 13.3099C26.0623 15.7043 25 18.7325 25 22.3945ZM40.7931 14.3663C41.643 16.4085 41.9971 19.0846 41.9971 22.3241C41.9971 29.7889 40.439 33.4509 37.3937 33.4509C35.8356 33.4509 34.6317 32.3945 33.7818 30.2818C32.9319 28.1692 32.5778 25.4931 32.5778 22.3241C32.5778 14.9297 34.1359 11.2677 37.1812 11.2677C38.7393 11.1972 39.9433 12.2536 40.7931 14.3663ZM100.637 31.479C102.974 33.803 105.949 35.0002 109.49 35.0002C111.685 35.0002 113.598 34.5776 115.297 33.6621C116.997 32.8171 118.343 31.7607 119.263 30.4931L118.555 29.648C116.997 30.8452 115.226 31.4086 113.173 31.4086C110.34 31.4086 108.144 30.4931 106.657 28.5917C105.099 26.6903 104.391 24.2959 104.532 21.1973H119.688C119.688 17.817 118.838 15.0705 117.068 12.8874C115.297 10.7747 112.818 9.71836 109.632 9.71836C105.666 9.71836 102.62 10.986 100.425 13.4508C98.2293 15.9156 97.167 18.9438 97.167 22.5353C97.167 26.1973 98.3001 29.1551 100.637 31.479ZM105.878 13.8029C106.657 12.1127 107.649 11.2677 108.994 11.2677C111.119 11.2677 112.181 13.9437 112.181 19.3663L104.674 19.5071C104.745 17.3945 105.099 15.493 105.878 13.8029ZM138.739 10.986C136.827 10.1409 134.419 9.64794 131.515 9.64794C128.541 9.64794 126.204 10.4226 124.433 11.9015C122.663 13.3804 121.742 15.2113 121.742 17.3945C121.742 19.2959 122.309 20.7748 123.371 21.8311C124.433 22.8874 126.133 23.8029 128.328 24.5776C130.311 25.2818 131.728 25.986 132.436 26.6199C133.144 27.3241 133.569 28.0987 133.569 29.1551C133.569 30.141 133.215 31.0565 132.436 31.7607C131.728 32.5354 130.736 32.8875 129.462 32.8875C126.345 32.8875 124.008 30.634 122.379 26.1269L121.175 26.479L121.459 33.5213C124.008 34.5072 126.841 35.0002 129.957 35.0002C133.215 35.0002 135.694 34.296 137.535 32.8171C139.377 31.4086 140.297 29.3663 140.297 26.8311C140.297 25.141 139.872 23.7325 138.952 22.6762C138.031 21.6198 136.544 20.7043 134.419 19.8593C132.082 19.0142 130.453 18.2395 129.603 17.5353C128.753 16.8311 128.328 15.986 128.328 14.9297C128.328 13.8733 128.612 13.0282 129.249 12.324C129.886 11.6198 130.665 11.3381 131.657 11.3381C134.49 11.3381 136.544 13.3804 137.818 17.3945L139.022 17.0423L138.739 10.986ZM70.6089 10.3522C69.6174 9.85921 68.5551 9.64794 67.3512 9.64794C66.1472 9.64794 64.9432 10.1409 63.5976 11.1268C62.252 12.1127 61.2605 13.4508 60.4815 15.2818L60.5523 9.64794L49.7874 11.7606V12.7465L50.8498 12.817C52.1954 12.9578 52.9744 14.0142 53.1161 15.9156C53.541 20.2818 53.541 24.9297 53.1161 29.8593C52.9744 31.7607 52.1954 32.7466 50.8498 32.9579L49.7874 33.0988V34.4368H64.8016V33.0988L62.8894 32.9579C61.5438 32.8171 60.7648 31.7607 60.6231 29.8593C60.1982 25.7748 60.1274 21.4086 60.4815 16.9015C60.9064 16.1973 61.8271 15.7747 63.2435 15.6339C64.6599 15.493 66.2888 15.9156 67.9885 16.9015L70.6089 10.3522Z" fill="#EBEBDC"></path>
</svg>