<svg width="124" height="34" viewBox="0 0 124 34" fill="none" xmlns="http://www.w3.org/2000/svg">
<mask id="mask0_622_851" style="mask-type:luminance" maskUnits="userSpaceOnUse" x="0" y="0" width="124" height="34">
<path d="M124 0H0V33.0443H124V0Z" fill="white"></path>
</mask>
<g mask="url(#mask0_622_851)">
<path d="M101.144 0.46875V17.9628L95.9157 0.46875H90.7546V32.5747H95.9157V16.8234L100.608 32.5747H106.305V0.46875H101.144Z" fill="#EBEBDC"></path>
<path d="M5.16108 0.46875H0.402162H0V32.5747H5.16108V18.7672H9.98703V13.338H5.16108V5.89794H12.6011V0.46875H5.16108Z" fill="#EBEBDC"></path>
<path d="M52.8843 0.46875V5.89794H57.4422V32.5747H62.6033V5.89794H67.2281V0.46875H52.8843Z" fill="#EBEBDC"></path>
<path d="M111.399 0.46875V32.5747H124V27.1455H116.56V18.7672H121.386V13.338H116.56V5.89794H124V0.46875H111.399Z" fill="#EBEBDC"></path>
<path d="M50.4714 32.5747H45.1092L41.2886 17.3596C41.2886 17.3596 44.573 16.7563 44.573 13.0699V8.04284C44.573 6.90338 43.7016 5.96496 42.5622 5.96496H40.5513V32.6418H35.3903V0.46875H42.5622C46.4497 0.46875 49.533 3.68605 49.734 7.7077V12.9357C49.734 16.086 48.7286 18.365 46.9189 19.8396L50.4714 32.5747Z" fill="#EBEBDC"></path>
<path d="M80.7005 0.46875V25.4699C80.7005 26.6093 79.8292 27.5476 78.6897 27.5476C77.5503 27.5476 76.6789 26.6093 76.6789 25.4699V0.46875H71.5178V25.4699C71.5178 29.6255 74.7351 33.0438 78.6897 33.0438C82.6443 33.0438 85.8616 29.6926 85.8616 25.4699V0.46875H80.7005Z" fill="#EBEBDC"></path>
<path d="M15.9524 7.57405V25.4703C15.9524 29.6259 19.1697 33.0443 23.1243 33.0443C27.0789 33.0443 30.2963 29.693 30.2963 25.4703V7.57405C30.3633 3.35135 27.1459 0 23.1243 0C19.1697 0 15.9524 3.35135 15.9524 7.57405ZM21.1135 25.4703V7.57405C21.1135 6.43459 21.9849 5.49622 23.1243 5.49622C24.1967 5.49622 25.1351 6.43459 25.1351 7.57405V25.4703C25.1351 26.6097 24.2638 27.5481 23.1243 27.5481C22.0519 27.5481 21.1135 26.6097 21.1135 25.4703Z" fill="#EBEBDC"></path>
</g>
</svg>