<svg xmlns="http://www.w3.org/2000/svg" width="97.942" height="139.889" viewBox="0 0 97.942 139.889" fill="none">
  <path d="M 89.457 89.426 L 82.614 82.583 L 81.535 81.504 L 0 0 C 0.986 2.898 3.545 10.481 6.813 20.099 C 7.244 21.362 7.953 22.503 8.878 23.428 L 72.965 87.515 L 68.804 90.444 L 11.097 32.737 C 13.132 38.718 15.228 44.944 17.293 51.017 C 18.126 53.483 19.513 55.703 21.332 57.552 L 60.234 96.455 L 56.073 99.383 L 22.164 65.475 C 24.383 72.01 26.295 77.712 27.682 81.72 C 28.977 85.511 31.104 88.933 33.909 91.738 L 35.018 92.848 C 42.725 100.555 45.53 111.899 42.293 122.287 L 36.806 139.889 L 71.362 108.6 C 76.079 104.5 83.169 104.747 87.608 109.186 L 94.759 116.338 C 99.784 108.754 98.767 98.705 92.355 92.293 L 89.426 89.365 L 89.457 89.426 Z" fill="currentColor" fill-rule="nonzero"></path>
</svg>