<svg xmlns="http://www.w3.org/2000/svg" width="48.075" height="68.644" viewBox="0 0 48.075 68.644" fill="none">
  <path d="M 43.911 43.882 L 40.552 40.524 L 40.022 39.995 L 0 0 C 0.484 1.422 1.74 5.143 3.344 9.863 C 3.556 10.483 3.904 11.042 4.358 11.496 L 35.816 42.944 L 33.773 44.381 L 5.447 16.064 C 6.446 18.999 7.475 22.055 8.489 25.034 C 8.897 26.245 9.578 27.334 10.471 28.241 L 29.566 47.331 L 27.524 48.768 L 10.879 32.129 C 11.969 35.336 12.907 38.134 13.588 40.1 C 14.223 41.961 15.267 43.64 16.644 45.017 L 17.189 45.561 C 20.972 49.343 22.349 54.909 20.76 60.007 L 18.067 68.644 L 35.029 53.291 C 37.344 51.279 40.824 51.4 43.003 53.578 L 46.513 57.088 C 48.98 53.382 48.48 48.45 45.333 45.304 L 43.896 43.867 L 43.911 43.882 Z" fill="#FFFFFF" fill-rule="nonzero"></path>
</svg>