<svg xmlns="http://www.w3.org/2000/svg" width="1129.226" height="200" viewBox="0 0 1129.226 200" fill="none">
  <path d="M 116.479 116.619 L 118.021 118.16 L 127.797 127.934 L 131.937 132.071 C 141.096 141.228 142.549 155.58 135.371 166.366 L 125.154 156.152 C 118.813 149.813 108.684 149.461 101.946 155.316 L 52.581 200 L 60.419 174.862 C 65.043 160.026 61.036 143.826 50.026 132.82 L 48.441 131.235 C 44.434 127.229 41.395 122.342 39.546 116.928 C 37.564 111.205 34.834 103.06 31.663 93.727 L 80.104 142.153 L 86.049 137.971 L 30.474 82.412 C 27.876 79.771 25.894 76.601 24.705 73.079 C 21.755 64.407 18.76 55.514 15.854 46.974 L 98.292 129.386 L 104.236 125.204 L 12.683 33.678 C 11.362 32.357 10.349 30.729 9.732 28.924 C 5.064 15.188 1.409 4.358 0 0.22 L 116.479 116.619 Z M 368.46 82.5 C 374.977 82.5 380.835 83.909 386.075 86.727 L 386.075 86.771 C 391.316 89.632 395.499 93.77 398.582 99.273 C 401.665 104.776 403.206 111.556 403.206 119.48 C 403.206 127.405 401.665 134.097 398.582 139.6 C 395.499 145.059 391.316 149.241 386.075 152.059 C 380.835 154.876 374.933 156.284 368.46 156.284 C 361.987 156.284 356.086 154.876 350.846 152.015 C 345.561 149.153 341.421 145.015 338.339 139.512 C 335.256 134.009 333.715 127.405 333.715 119.437 C 333.715 111.468 335.256 104.732 338.339 99.229 C 341.421 93.727 345.605 89.544 350.846 86.727 C 356.086 83.909 361.943 82.5 368.46 82.5 Z M 212.304 83.646 C 217.985 83.646 222.917 84.658 227.057 86.684 C 231.196 88.709 234.411 91.614 236.657 95.312 C 238.903 99.009 240.048 103.456 240.048 108.563 C 240.048 113.669 238.903 118.072 236.657 121.814 C 234.411 125.556 231.196 128.462 227.057 130.487 C 222.917 132.512 217.984 133.524 212.304 133.524 L 201.911 133.524 L 201.911 155.097 L 181.962 155.097 L 181.962 83.646 L 212.304 83.646 Z M 274.968 83.646 C 280.648 83.646 285.58 84.659 289.72 86.684 C 293.859 88.709 297.074 91.57 299.32 95.312 C 301.566 99.009 302.711 103.588 302.711 108.563 C 302.711 113.537 301.522 117.808 299.188 121.418 L 299.232 121.462 C 297.383 124.279 294.873 126.613 291.834 128.418 L 304.957 155.097 L 284.172 155.097 L 273.471 132.732 L 264.575 132.732 L 264.575 155.097 L 244.626 155.097 L 244.626 83.646 L 274.968 83.646 Z M 438.304 83.646 C 444.029 83.646 448.961 84.658 453.101 86.684 C 457.24 88.709 460.454 91.614 462.7 95.312 C 464.946 99.009 466.092 103.588 466.092 108.563 C 466.092 113.537 464.902 117.808 462.568 121.418 L 462.524 121.462 C 460.719 124.279 458.208 126.613 455.17 128.418 L 468.293 155.097 L 447.508 155.097 L 436.807 132.732 L 427.911 132.732 L 427.911 155.097 L 407.962 155.097 L 407.962 83.646 L 438.304 83.646 Z M 593.714 103.677 C 594.551 105.35 595.343 106.979 596.136 108.651 C 596.4 109.224 596.664 109.84 596.973 110.456 C 597.237 109.884 597.501 109.268 597.766 108.651 C 598.514 107.023 599.263 105.35 600.056 103.677 L 609.699 83.646 L 632.379 83.646 L 606.528 130.751 L 606.528 155.097 L 587.24 155.097 L 587.24 130.751 L 560.598 83.646 L 583.453 83.646 L 593.714 103.677 Z M 328.959 155.052 L 309.01 155.052 L 309.01 83.602 L 328.959 83.602 L 328.959 155.052 Z M 492.295 155.052 L 472.346 155.052 L 472.346 83.602 L 492.295 83.602 L 492.295 155.052 Z M 557.735 100.507 L 537.39 100.507 L 537.39 155.052 L 517.441 155.052 L 517.441 100.507 L 497.096 100.507 L 497.096 83.602 L 557.735 83.602 L 557.735 100.507 Z M 783.954 98.481 C 785.011 100.066 786.068 101.608 787.081 103.148 C 788.094 104.689 789.106 106.23 790.119 107.771 C 790.824 108.871 791.529 109.972 792.233 111.072 C 792.938 109.972 793.686 108.871 794.391 107.771 C 795.403 106.23 796.417 104.689 797.474 103.148 C 798.531 101.608 799.588 100.066 800.601 98.481 L 810.949 83.602 L 821.678 83.602 L 797.826 118.072 L 823.147 154.965 L 812.006 154.965 L 799.72 137.135 C 798.707 135.682 797.738 134.229 796.813 132.82 C 795.845 131.412 794.92 130.003 793.951 128.55 C 793.335 127.625 792.718 126.701 792.102 125.776 C 791.485 126.701 790.868 127.625 790.252 128.55 C 789.283 129.959 788.314 131.412 787.345 132.82 C 786.376 134.273 785.363 135.726 784.395 137.179 L 772.021 155.009 L 761.099 155.009 L 786.685 118.469 L 762.729 83.602 L 773.87 83.602 L 783.954 98.481 Z M 696.498 92.054 L 673.51 92.054 L 673.51 155.008 L 663.866 155.008 L 663.866 92.054 L 640.878 92.054 L 640.878 83.602 L 696.498 83.602 L 696.498 92.054 Z M 759.206 155.008 L 748.857 155.008 L 742.208 135.726 L 712.835 135.726 L 705.965 155.008 L 695.792 155.008 L 721.906 83.602 L 733.313 83.602 L 759.206 155.008 Z M 943.694 92.054 L 906.131 92.054 L 906.131 114.286 L 940.965 114.286 L 940.965 122.738 L 906.131 122.738 L 906.131 146.512 L 943.694 146.512 L 943.694 155.008 L 896.442 155.008 L 896.442 83.602 L 943.694 83.602 L 943.694 92.054 Z M 963.511 146.512 L 997.596 146.512 L 997.596 155.008 L 953.822 155.008 L 953.822 83.602 L 963.511 83.602 L 963.511 146.512 Z M 1016.4 155.008 L 1006.712 155.008 L 1006.712 83.602 L 1016.4 83.602 L 1016.4 155.008 Z M 1073.34 92.054 L 1035.732 92.054 L 1035.732 114.286 L 1070.61 114.286 L 1070.61 122.738 L 1035.732 122.738 L 1035.732 146.512 L 1073.34 146.512 L 1073.34 155.008 L 1026.044 155.008 L 1026.044 83.602 L 1073.34 83.602 L 1073.34 92.054 Z M 1129.226 83.602 L 1129.226 92.054 L 1093.114 92.054 L 1093.114 114.506 L 1126.406 114.506 L 1126.406 122.915 L 1093.114 122.915 L 1093.114 155.008 L 1083.426 155.008 L 1083.426 83.602 L 1129.226 83.602 Z M 860.947 83.557 C 865.967 83.557 870.371 84.437 874.026 86.198 C 877.725 88.003 880.544 90.513 882.525 93.814 C 884.507 97.116 885.52 100.99 885.52 105.524 C 885.52 110.059 884.463 113.933 882.35 117.234 C 880.236 120.536 877.285 123.09 873.498 124.851 L 873.454 124.807 C 872.573 125.247 871.692 125.599 870.724 125.907 L 886.489 155.007 L 875.479 155.007 L 860.859 127.448 L 843.729 127.448 L 843.729 154.963 L 834.04 154.963 L 834.04 83.557 L 860.947 83.557 Z M 368.46 99.714 C 365.333 99.714 362.691 100.506 360.533 102.047 C 358.332 103.588 356.703 105.833 355.558 108.782 C 354.413 111.732 353.84 115.298 353.84 119.393 C 353.84 123.487 354.413 127.009 355.558 129.914 C 356.703 132.819 358.332 135.065 360.533 136.605 C 362.735 138.146 365.333 138.939 368.46 138.939 C 371.587 138.939 374.273 138.146 376.431 136.605 C 378.589 135.065 380.262 132.82 381.363 129.914 C 382.464 127.009 383.036 123.531 383.036 119.393 C 383.036 115.254 382.464 111.732 381.363 108.782 C 380.262 105.833 378.588 103.588 376.431 102.047 C 374.229 100.506 371.586 99.714 368.46 99.714 Z M 727.587 92.538 C 726.31 96.544 725.209 99.978 724.284 102.84 C 723.007 106.67 721.863 110.192 720.762 113.361 L 715.785 127.361 L 739.241 127.361 L 734.413 113.405 C 733.312 110.28 732.167 106.758 730.89 102.928 C 729.965 100.022 728.864 96.588 727.587 92.538 Z M 131.805 121.946 L 91.467 81.62 L 173.112 0 C 173.112 0 132.335 120.4 131.805 121.946 Z M 843.729 119.128 L 860.595 119.128 C 863.765 119.128 866.54 118.6 868.83 117.499 C 871.12 116.398 872.881 114.813 874.114 112.788 C 875.347 110.763 875.964 108.386 875.964 105.568 C 875.964 102.751 875.347 100.33 874.114 98.349 C 872.881 96.324 871.076 94.782 868.786 93.682 C 866.496 92.537 863.766 92.009 860.551 92.009 L 843.729 92.009 L 843.729 119.128 Z M 264.53 117.279 L 273.471 117.279 C 275.496 117.279 277.214 116.927 278.667 116.179 C 280.12 115.43 281.265 114.418 282.058 113.098 C 282.85 111.821 283.247 110.323 283.247 108.563 C 283.247 106.802 282.85 105.261 282.058 103.984 C 281.265 102.708 280.12 101.696 278.667 100.947 C 277.214 100.199 275.496 99.847 273.471 99.847 L 264.53 99.847 L 264.53 117.279 Z M 427.911 117.279 L 436.851 117.279 C 438.876 117.279 440.594 116.927 442.047 116.179 C 443.5 115.43 444.645 114.418 445.438 113.098 C 446.23 111.821 446.627 110.323 446.627 108.563 C 446.627 106.802 446.23 105.261 445.438 103.984 C 444.645 102.708 443.5 101.696 442.047 100.947 C 440.594 100.199 438.876 99.847 436.851 99.847 L 427.911 99.847 L 427.911 117.279 Z M 201.867 117.104 L 210.807 117.104 C 212.832 117.104 214.55 116.751 216.003 116.047 C 217.456 115.342 218.602 114.33 219.395 113.054 C 220.187 111.777 220.583 110.323 220.583 108.563 C 220.583 106.802 220.187 105.305 219.395 104.028 C 218.602 102.752 217.456 101.783 216.003 101.079 C 214.55 100.375 212.832 100.022 210.807 100.022 L 201.867 100.022 L 201.867 117.104 Z M 821.738 83.602 L 821.678 83.602 L 821.738 83.514 L 821.738 83.602 Z" fill="currentColor" fill-rule="nonzero"></path>
</svg>