<svg xmlns="http://www.w3.org/2000/svg" width="388" height="68.720" viewBox="0 0 388 68.720" fill="none">
  <path d="M 40.022 40.07 L 40.552 40.6 L 43.911 43.958 L 45.333 45.38 C 48.48 48.526 48.98 53.457 46.514 57.163 L 43.003 53.654 C 40.824 51.476 37.343 51.354 35.028 53.366 L 18.066 68.72 L 20.76 60.083 C 22.349 54.985 20.972 49.418 17.189 45.637 L 16.645 45.093 C 15.268 43.716 14.223 42.037 13.588 40.177 C 12.907 38.21 11.968 35.412 10.879 32.205 L 27.523 48.844 L 29.566 47.407 L 10.471 28.317 C 9.578 27.41 8.897 26.32 8.488 25.11 C 7.475 22.131 6.446 19.075 5.447 16.141 L 33.772 44.457 L 35.815 43.021 L 4.357 11.572 C 3.904 11.118 3.556 10.559 3.344 9.938 C 1.74 5.219 0.484 1.498 0 0.076 L 40.022 40.07 Z M 126.603 28.348 C 128.842 28.348 130.855 28.832 132.655 29.8 L 132.655 29.814 C 134.456 30.798 135.893 32.22 136.952 34.11 C 138.011 36.001 138.541 38.331 138.541 41.054 C 138.541 43.776 138.011 46.076 136.952 47.967 C 135.893 49.842 134.456 51.279 132.655 52.247 C 130.855 53.215 128.827 53.699 126.603 53.699 C 124.378 53.699 122.35 53.216 120.55 52.232 C 118.734 51.249 117.312 49.827 116.253 47.937 C 115.194 46.046 114.664 43.776 114.664 41.038 C 114.664 38.3 115.194 35.986 116.253 34.096 C 117.312 32.205 118.749 30.768 120.55 29.8 C 122.35 28.832 124.363 28.348 126.603 28.348 Z M 72.947 28.74 C 74.899 28.74 76.594 29.088 78.017 29.784 C 79.439 30.48 80.543 31.479 81.314 32.749 C 82.086 34.02 82.479 35.548 82.479 37.303 C 82.479 39.057 82.086 40.57 81.314 41.855 C 80.543 43.141 79.439 44.139 78.017 44.835 C 76.594 45.531 74.899 45.879 72.947 45.879 L 69.376 45.879 L 69.376 53.291 L 62.521 53.291 L 62.521 28.74 L 72.947 28.74 Z M 94.479 28.74 C 96.43 28.74 98.126 29.088 99.548 29.784 C 100.97 30.48 102.075 31.463 102.847 32.749 C 103.618 34.02 104.012 35.593 104.012 37.303 C 104.012 39.012 103.603 40.479 102.801 41.72 L 102.816 41.734 C 102.181 42.702 101.317 43.504 100.273 44.124 L 104.783 53.291 L 97.641 53.291 L 93.964 45.606 L 90.907 45.606 L 90.907 53.291 L 84.054 53.291 L 84.054 28.74 L 94.479 28.74 Z M 150.601 28.74 C 152.568 28.74 154.262 29.088 155.685 29.784 C 157.107 30.48 158.212 31.478 158.983 32.749 C 159.755 34.02 160.148 35.593 160.148 37.303 C 160.148 39.012 159.739 40.479 158.938 41.72 L 158.923 41.734 C 158.302 42.702 157.44 43.504 156.396 44.124 L 160.905 53.291 L 153.763 53.291 L 150.086 45.606 L 147.029 45.606 L 147.029 53.291 L 140.175 53.291 L 140.175 28.74 L 150.601 28.74 Z M 203.999 35.623 C 204.287 36.198 204.559 36.758 204.831 37.333 C 204.922 37.53 205.013 37.741 205.119 37.953 C 205.21 37.757 205.301 37.545 205.392 37.333 C 205.649 36.773 205.905 36.198 206.178 35.623 L 209.492 28.74 L 217.284 28.74 L 208.402 44.926 L 208.402 53.291 L 201.775 53.291 L 201.775 44.926 L 192.62 28.74 L 200.474 28.74 L 203.999 35.623 Z M 113.03 53.276 L 106.176 53.276 L 106.176 28.726 L 113.03 28.726 L 113.03 53.276 Z M 169.151 53.276 L 162.298 53.276 L 162.298 28.726 L 169.151 28.726 L 169.151 53.276 Z M 191.637 34.534 L 184.646 34.534 L 184.646 53.276 L 177.792 53.276 L 177.792 34.534 L 170.802 34.534 L 170.802 28.726 L 191.637 28.726 L 191.637 34.534 Z M 239.315 31.63 L 231.417 31.63 L 231.417 53.261 L 228.104 53.261 L 228.104 31.63 L 220.205 31.63 L 220.205 28.726 L 239.315 28.726 L 239.315 31.63 Z M 260.862 53.261 L 257.307 53.261 L 255.021 46.636 L 244.929 46.636 L 242.568 53.261 L 239.073 53.261 L 248.046 28.726 L 251.965 28.726 L 260.862 53.261 Z M 269.366 33.839 C 269.729 34.383 270.093 34.912 270.44 35.441 C 270.788 35.971 271.136 36.501 271.484 37.03 C 271.726 37.408 271.969 37.787 272.211 38.165 C 272.453 37.787 272.71 37.408 272.952 37.03 C 273.3 36.501 273.648 35.971 274.011 35.441 C 274.374 34.912 274.738 34.383 275.086 33.839 L 278.642 28.726 L 282.328 28.726 L 274.132 40.569 L 282.833 53.246 L 279.005 53.246 L 274.783 47.119 C 274.435 46.62 274.102 46.121 273.784 45.637 C 273.451 45.153 273.134 44.669 272.801 44.17 C 272.589 43.852 272.377 43.534 272.165 43.217 C 271.953 43.534 271.741 43.852 271.529 44.17 C 271.197 44.654 270.864 45.153 270.531 45.637 C 270.198 46.136 269.85 46.636 269.518 47.135 L 265.266 53.261 L 261.513 53.261 L 270.304 40.706 L 262.072 28.726 L 265.9 28.726 L 269.366 33.839 Z M 295.82 28.71 C 297.545 28.71 299.059 29.013 300.314 29.618 C 301.585 30.238 302.554 31.1 303.234 32.234 C 303.915 33.369 304.264 34.701 304.264 36.259 C 304.264 37.817 303.9 39.148 303.174 40.282 C 302.448 41.417 301.434 42.293 300.133 42.898 L 300.117 42.884 C 299.815 43.035 299.512 43.156 299.18 43.262 L 304.597 53.261 L 300.813 53.261 L 295.79 43.791 L 289.904 43.791 L 289.904 53.245 L 286.575 53.245 L 286.575 28.71 L 295.82 28.71 Z M 324.252 31.63 L 311.346 31.63 L 311.346 39.269 L 323.314 39.269 L 323.314 42.173 L 311.346 42.173 L 311.346 50.342 L 324.252 50.342 L 324.252 53.261 L 308.017 53.261 L 308.017 28.726 L 324.252 28.726 L 324.252 31.63 Z M 331.062 50.342 L 342.773 50.342 L 342.773 53.261 L 327.732 53.261 L 327.732 28.726 L 331.062 28.726 L 331.062 50.342 Z M 349.233 53.261 L 345.904 53.261 L 345.904 28.726 L 349.233 28.726 L 349.233 53.261 Z M 368.798 31.63 L 355.876 31.63 L 355.876 39.269 L 367.86 39.269 L 367.86 42.173 L 355.876 42.173 L 355.876 50.342 L 368.798 50.342 L 368.798 53.261 L 352.548 53.261 L 352.548 28.726 L 368.798 28.726 L 368.798 31.63 Z M 388 28.726 L 388 31.63 L 375.593 31.63 L 375.593 39.345 L 387.031 39.345 L 387.031 42.233 L 375.593 42.233 L 375.593 53.261 L 372.264 53.261 L 372.264 28.726 L 388 28.726 Z M 126.603 34.262 C 125.528 34.262 124.62 34.534 123.879 35.063 C 123.122 35.593 122.562 36.364 122.169 37.378 C 121.776 38.391 121.579 39.617 121.579 41.023 C 121.579 42.43 121.776 43.64 122.169 44.639 C 122.562 45.637 123.122 46.408 123.879 46.938 C 124.635 47.467 125.528 47.739 126.603 47.739 C 127.677 47.739 128.6 47.467 129.342 46.938 C 130.083 46.408 130.658 45.637 131.036 44.639 C 131.414 43.64 131.611 42.445 131.611 41.023 C 131.611 39.602 131.414 38.391 131.036 37.378 C 130.658 36.365 130.083 35.593 129.342 35.063 C 128.585 34.534 127.677 34.262 126.603 34.262 Z M 248.863 35.336 C 248.424 36.652 248.031 37.862 247.652 38.951 L 245.942 43.762 L 254.003 43.762 L 252.344 38.966 C 251.965 37.892 251.572 36.682 251.133 35.366 C 250.815 34.368 250.437 33.188 249.998 31.796 C 249.559 33.172 249.181 34.353 248.863 35.336 Z M 45.288 41.901 L 31.428 28.045 L 59.481 0 C 59.481 0 45.47 41.372 45.288 41.901 Z M 289.904 40.933 L 295.699 40.933 C 296.788 40.933 297.742 40.751 298.528 40.373 C 299.315 39.995 299.921 39.45 300.345 38.754 C 300.768 38.058 300.979 37.241 300.979 36.273 C 300.979 35.305 300.768 34.474 300.345 33.793 C 299.921 33.097 299.3 32.568 298.514 32.189 C 297.727 31.796 296.788 31.614 295.684 31.614 L 289.904 31.614 L 289.904 40.933 Z M 90.893 40.298 L 93.964 40.298 C 94.66 40.298 95.251 40.176 95.75 39.919 C 96.249 39.662 96.643 39.314 96.915 38.86 C 97.187 38.422 97.323 37.908 97.323 37.303 C 97.323 36.698 97.187 36.168 96.915 35.729 C 96.643 35.291 96.249 34.943 95.75 34.686 C 95.251 34.428 94.66 34.308 93.964 34.308 L 90.893 34.308 L 90.893 40.298 Z M 147.029 40.298 L 150.102 40.298 C 150.797 40.298 151.387 40.176 151.887 39.919 C 152.386 39.662 152.779 39.314 153.052 38.86 C 153.324 38.422 153.46 37.908 153.46 37.303 C 153.46 36.698 153.324 36.168 153.052 35.729 C 152.779 35.291 152.386 34.943 151.887 34.686 C 151.387 34.428 150.797 34.308 150.102 34.308 L 147.029 34.308 L 147.029 40.298 Z M 69.361 40.237 L 72.433 40.237 C 73.129 40.237 73.719 40.116 74.219 39.874 C 74.718 39.632 75.111 39.284 75.384 38.846 C 75.656 38.407 75.792 37.908 75.792 37.303 C 75.792 36.698 75.656 36.183 75.384 35.744 C 75.111 35.306 74.718 34.972 74.219 34.73 C 73.719 34.488 73.129 34.368 72.433 34.368 L 69.361 34.368 L 69.361 40.237 Z M 282.349 28.726 L 282.328 28.726 L 282.349 28.695 L 282.349 28.726 Z" fill="currentColor" fill-rule="nonzero"></path>
</svg>